<?xml version="1.0"?>
<svg width="514.948" height="514.949" xmlns="http://www.w3.org/2000/svg">
 <g>
  <title>Layer 1</title>
  <g>
   <path stroke="#000000" stroke-width="14" fill="#ffffff" d="m426.519012,245.283997c-18.904999,2.71701 -52.612,5.081009 -106.10199,-7.162994c-33.127014,-8.277008 -61.817017,-18.468002 -79.255997,-27.5c-1.203003,1.085999 -2.550003,1.988998 -3.988007,2.722992c1.404999,1.351013 2.378998,3.154007 2.604004,5.223007l29.690994,270.709976c0.110992,0.994019 0,1.984009 -0.229004,2.937012h40.341003v22.734985h-151.593018v-22.734985h39.261993c-0.219986,-0.914001 -0.330994,-1.854004 -0.241989,-2.807007l25.541992,-270.710999c0.139008,-1.479996 0.671997,-2.82399 1.449997,-3.982986c-0.673996,-0.19101 -1.332993,-0.400009 -1.978989,-0.657013c-38.128998,36.39502 -134.995003,113.001022 -157.788002,133.046005c-29.065002,25.553986 -6.323002,-44.197998 -6.323002,-44.197998c11.450001,-15.295013 33.609997,-40.799011 80.091015,-69.959c27.746994,-16.653 53.86998,-29.255005 72.459991,-35.585999c-0.033005,-1.593002 0.116989,-3.203003 0.528,-4.818008c0.765991,-3.054001 2.252991,-5.731995 4.235001,-7.912994c-32.486008,-40.684006 -98.583008,-145.412991 -116.599998,-170.117001c-22.780998,-31.271 44.592003,-2.26 44.592003,-2.26c14.182999,12.799999 35.389984,37.191 60.192001,86.145998c15.436996,32.031006 26.182999,61.662003 30.011002,80.807999c6.565994,1.695999 11.377991,6.738998 13.098999,12.843002c52.042984,1.044998 176.268997,15.559998 206.787003,17.520996c38.618988,2.475021 -26.785004,35.715012 -26.785004,35.715012z"/>
  </g>
  <g/>
  <g/>
  <g/>
  <g/>
  <g/>
  <g/>
  <g/>
  <g/>
  <g/>
  <g/>
  <g/>
  <g/>
  <g/>
  <g/>
  <g/>
 </g>
</svg>